<svg xmlns="http://www.w3.org/2000/svg" viewBox="0 0 1200 880" role="img" aria-labelledby="title desc">
  <title id="title">Learn with Parth and Ved</title>
  <desc id="desc">An illustration of Parth and Ved collaborating on electronics learning.</desc>
  <defs>
    <linearGradient id="bg" x1="0" x2="1">
      <stop offset="0%" stop-color="#edf8ff"/>
      <stop offset="100%" stop-color="#dfeeff"/>
    </linearGradient>
    <linearGradient id="panel" x1="0" x2="1">
      <stop offset="0%" stop-color="#ffffff" stop-opacity="0.95"/>
      <stop offset="100%" stop-color="#edf5ff"/>
    </linearGradient>
    <linearGradient id="board" x1="0" x2="1">
      <stop offset="0%" stop-color="#1a4ca0"/>
      <stop offset="100%" stop-color="#112f63"/>
    </linearGradient>
  </defs>
  <rect width="1200" height="880" fill="url(#bg)"/>
  <circle cx="1030" cy="110" r="95" fill="#dff3ff"/>
  <circle cx="190" cy="170" r="105" fill="#f1faff"/>
  <rect x="100" y="125" width="1000" height="620" rx="30" fill="url(#panel)" stroke="#cbe0f6" stroke-width="2"/>
  <rect x="170" y="220" width="420" height="270" rx="22" fill="url(#board)"/>
  <g fill="#7ec8ff">
    <circle cx="235" cy="290" r="10"/>
    <circle cx="280" cy="290" r="10"/>
    <circle cx="325" cy="290" r="10"/>
    <circle cx="235" cy="335" r="10"/>
    <circle cx="280" cy="335" r="10"/>
    <circle cx="325" cy="335" r="10"/>
    <circle cx="235" cy="380" r="10"/>
    <circle cx="280" cy="380" r="10"/>
    <circle cx="325" cy="380" r="10"/>
  </g>
  <g fill="#2fb174">
    <circle cx="435" cy="290" r="12"/>
    <circle cx="480" cy="290" r="12"/>
    <circle cx="525" cy="290" r="12"/>
    <circle cx="435" cy="335" r="12"/>
    <circle cx="480" cy="335" r="12"/>
    <circle cx="525" cy="335" r="12"/>
    <circle cx="435" cy="380" r="12"/>
    <circle cx="480" cy="380" r="12"/>
    <circle cx="525" cy="380" r="12"/>
  </g>
  <rect x="680" y="255" width="300" height="180" rx="18" fill="#ffffff" stroke="#d7eaff" stroke-width="2"/>
  <rect x="720" y="295" width="220" height="16" rx="8" fill="#dfeeff"/>
  <rect x="720" y="330" width="180" height="12" rx="6" fill="#dfeeff"/>
  <rect x="720" y="355" width="190" height="12" rx="6" fill="#dfeeff"/>
  <rect x="720" y="382" width="150" height="12" rx="6" fill="#dfeeff"/>
  <rect x="710" y="466" width="160" height="52" rx="18" fill="#edf8ff"/>
  <rect x="300" y="530" width="560" height="120" rx="22" fill="#ffffff" stroke="#d5eaff" stroke-width="2"/>
  <rect x="330" y="560" width="150" height="14" rx="7" fill="#edf6ff"/>
  <rect x="510" y="560" width="140" height="14" rx="7" fill="#edf6ff"/>
  <rect x="685" y="560" width="135" height="14" rx="7" fill="#edf6ff"/>
  <g>
    <circle cx="890" cy="535" r="58" fill="#f0faff" stroke="#cfe4ff" stroke-width="3"/>
    <circle cx="890" cy="535" r="30" fill="#7bc7ff" opacity="0.9"/>
  </g>
  <g>
    <path d="M200 675 C250 635, 290 632, 350 647" fill="none" stroke="#1b4ea3" stroke-width="10" stroke-linecap="round"/>
    <path d="M850 675 C930 635, 1010 640, 1075 648" fill="none" stroke="#1b4ea3" stroke-width="10" stroke-linecap="round"/>
  </g>
  <g>
    <rect x="530" y="560" width="18" height="52" rx="6" fill="#5db8ff"/>
    <rect x="570" y="560" width="18" height="52" rx="6" fill="#21af72"/>
    <rect x="610" y="560" width="18" height="52" rx="6" fill="#ffbf5d"/>
  </g>
</svg>
